<svg viewBox="0 0 369.66666666666663 93.00210740831162" xmlns:xlink="http://www.w3.org/1999/xlink" xmlns="http://www.w3.org/2000/svg" height="93.00210740831162" width="369.66666666666663" style="width: 369.667px; height: 93.0021px; position: absolute; top: 50%; left: 50%; transform: translate(-50%, -50%) scale(1); z-index: 0; cursor: pointer; overflow: visible;"><defs id="SvgjsDefs1001"></defs><g id="SvgjsG1007" featurekey="PG4fjM-0" transform="matrix(2.7777777777777777,0,0,2.7777777777777777,0,3.4455193413628473)" fill="#FFFFFF"><title xmlns="http://www.w3.org/2000/svg" fill="#FFFFFF">education_024-physics-science-subject-learn-study-school</title><desc xmlns="http://www.w3.org/2000/svg" fill="#FFFFFF">Created with Sketch.</desc><g xmlns="http://www.w3.org/2000/svg" stroke="none" stroke-width="1" fill="none" fill-rule="evenodd" xmlns:sketch="http://www.bohemiancoding.com/sketch/ns" sketch:type="MSPage"><g sketch:type="MSArtboardGroup" transform="translate(-180.000000, -135.000000)" fill="#FFFFFF"><g sketch:type="MSLayerGroup" transform="translate(180.000000, 133.000000)" fill="#FFFFFF"><path d="M15,21 C17.209139,21 19,19.209139 19,17 C19,14.790861 17.209139,13 15,13 C12.790861,13 11,14.790861 11,17 C11,19.209139 12.790861,21 15,21 Z M15,20 C16.6568542,20 18,18.6568542 18,17 C18,15.3431458 16.6568542,14 15,14 C13.3431458,14 12,15.3431458 12,17 C12,18.6568542 13.3431458,20 15,20 Z" sketch:type="MSShapeGroup" fill="#FFFFFF"></path><path d="M26.734844,21.049072 C23.986508,22.542767 19.751224,23.5 15,23.5 C6.715729,23.5 0,20.589851 0,17 C0,13.410149 6.715729,10.5 15,10.5 C23.284271,10.5 30,13.410149 30,17 C30,17.474749 29.882546,17.937611 29.659542,18.383427 C29.874512,18.702305 30,19.086498 30,19.5 C30,20.604569 29.104569,21.5 28,21.5 C27.52002,21.5 27.079531,21.33092 26.734844,21.049072 L26.734844,21.049072 Z M26.142148,20.241968 C23.594365,21.574263 19.568896,22.5 15,22.5 C7.210146,22.5 1,19.808937 1,17 C1,14.191063 7.210146,11.5 15,11.5 C22.789854,11.5 29,14.191063 29,17 C29,17.234636 28.956668,17.46845 28.872703,17.699941 C28.608981,17.571846 28.312881,17.5 28,17.5 C26.895431,17.5 26,18.395431 26,19.5 C26,19.762162 26.050441,20.012543 26.142148,20.241968 L26.142148,20.241968 Z M28,20.5 C28.552285,20.5 29,20.052285 29,19.5 C29,18.947715 28.552285,18.5 28,18.5 C27.447715,18.5 27,18.947715 27,19.5 C27,20.052285 27.447715,20.5 28,20.5 L28,20.5 Z" sketch:type="MSShapeGroup" fill="#FFFFFF"></path><path d="M26.734844,21.049072 C23.986508,22.542767 19.751224,23.5 15,23.5 C6.715729,23.5 0,20.589851 0,17 C0,13.410149 6.715729,10.5 15,10.5 C23.284271,10.5 30,13.410149 30,17 C30,17.474749 29.882546,17.937611 29.659542,18.383427 C29.874512,18.702305 30,19.086498 30,19.5 C30,20.604569 29.104569,21.5 28,21.5 C27.52002,21.5 27.079531,21.33092 26.734844,21.049072 L26.734844,21.049072 Z M26.142148,20.241968 C23.594365,21.574263 19.568896,22.5 15,22.5 C7.210146,22.5 1,19.808937 1,17 C1,14.191063 7.210146,11.5 15,11.5 C22.789854,11.5 29,14.191063 29,17 C29,17.234636 28.956668,17.46845 28.872703,17.699941 C28.608981,17.571846 28.312881,17.5 28,17.5 C26.895431,17.5 26,18.395431 26,19.5 C26,19.762162 26.050441,20.012543 26.142148,20.241968 L26.142148,20.241968 Z M28,20.5 C28.552285,20.5 29,20.052285 29,19.5 C29,18.947715 28.552285,18.5 28,18.5 C27.447715,18.5 27,18.947715 27,19.5 C27,20.052285 27.447715,20.5 28,20.5 L28,20.5 Z" sketch:type="MSShapeGroup" transform="translate(15.000000, 17.000000) scale(-1, -1) rotate(-300.000000) translate(-15.000000, -17.000000) " fill="#FFFFFF"></path><path d="M26.734844,21.049072 C23.986508,22.542767 19.751224,23.5 15,23.5 C6.715729,23.5 0,20.589851 0,17 C0,13.410149 6.715729,10.5 15,10.5 C23.284271,10.5 30,13.410149 30,17 C30,17.474749 29.882546,17.937611 29.659542,18.383427 C29.874512,18.702305 30,19.086498 30,19.5 C30,20.604569 29.104569,21.5 28,21.5 C27.52002,21.5 27.079531,21.33092 26.734844,21.049072 L26.734844,21.049072 Z M26.142148,20.241968 C23.594365,21.574263 19.568896,22.5 15,22.5 C7.210146,22.5 1,19.808937 1,17 C1,14.191063 7.210146,11.5 15,11.5 C22.789854,11.5 29,14.191063 29,17 C29,17.234636 28.956668,17.46845 28.872703,17.699941 C28.608981,17.571846 28.312881,17.5 28,17.5 C26.895431,17.5 26,18.395431 26,19.5 C26,19.762162 26.050441,20.012543 26.142148,20.241968 L26.142148,20.241968 Z M28,20.5 C28.552285,20.5 29,20.052285 29,19.5 C29,18.947715 28.552285,18.5 28,18.5 C27.447715,18.5 27,18.947715 27,19.5 C27,20.052285 27.447715,20.5 28,20.5 L28,20.5 Z" sketch:type="MSShapeGroup" transform="translate(15.000000, 17.000000) scale(-1, -1) rotate(-60.000000) translate(-15.000000, -17.000000) " fill="#FFFFFF"></path></g></g></g></g><g id="SvgjsG1008" featurekey="jxYttZ-0" transform="matrix(3.1335684071458587,0,0,3.1335684071458587,99.42773206067977,4.198589557124848)" fill="#FFFFFF"><path d="M1.14 7.76 l9.1 0 l0 2.78 l-6.1 0 l0 1.96 l4.9 0 l0 2.78 l-4.9 0 l0 1.94 l6.1 0 l0 2.78 l-9.1 0 l0 -12.24 z M18.66 15 c0 -1.5 -0.74 -2.32 -2.26 -2.32 c-0.42 0 -0.78 0.06 -1.08 0.18 c-0.56 0.26 -0.94 0.64 -1.12 1.24 c-0.1 0.28 -0.14 0.58 -0.14 0.9 s0.04 0.62 0.14 0.9 c0.16 0.58 0.58 1 1.12 1.22 c0.3 0.14 0.66 0.2 1.08 0.2 c1.52 0 2.26 -0.82 2.26 -2.32 z M18.66 11 l0 -5 l3 0 l0 9 c0 3.18 -2.26 5.1 -5.28 5.1 c-3.08 0 -5.32 -2 -5.32 -5.06 c0 -2.82 2.08 -5.14 4.92 -5.14 c1.06 0 1.98 0.3 2.68 1.1 z M30.7 10 l3 0 l0 5 c0 3.06 -2.12 5.1 -5.1 5.1 c-3.06 0 -5.1 -2.14 -5.1 -5.1 l0 -5 l3 0 l0 5 c0 1.34 0.68 2.32 2.1 2.32 c1.46 0 2.1 -0.96 2.1 -2.32 l0 -5 z M44.940000000000005 17.22 l0 2.78 l-9.1 0 l0 -12.24 l3 0 l0 9.46 l6.1 0 z M48.96000000000001 13.8 c0.3 0.1 0.64 0.18 1 0.22 c0.36 0.06 0.7 0.08 1.02 0.08 c0.4 0 1.42 -0.08 1.42 -0.66 c0 -0.62 -0.88 -0.64 -1.32 -0.64 c-0.88 0 -1.64 0.2 -2.12 1 z M54.620000000000005 16.88 l0 2.8 c-1.12 0.26 -2.24 0.44 -3.4 0.44 c-3.18 0 -5.54 -1.86 -5.54 -5.08 c0 -3.18 2.28 -5.14 5.3 -5.14 c2.06 0 4.44 0.98 4.44 3.32 c0 2.32 -2.52 3.18 -4.46 3.18 c-0.74 0 -1.48 -0.2 -2.16 -0.48 c0.4 1.12 1.6 1.3 2.64 1.3 c0.54 0 1.08 -0.02 1.62 -0.1 c0.5 -0.04 1.08 -0.1 1.56 -0.24 z M63.92 15 c-0.08 -1.46 -0.74 -2.32 -2.26 -2.32 c-0.42 0 -0.78 0.06 -1.08 0.18 c-0.92 0.42 -1.26 1.2 -1.26 2.16 c0 0.32 0.04 0.62 0.14 0.88 c0.3 1.04 1.2 1.42 2.2 1.42 c1.52 0 2.26 -0.82 2.26 -2.32 z M67.72 20 l-3 0 c-0.2 -0.5 -0.38 -1 -0.5 -1.52 c-0.68 1.12 -1.72 1.62 -3 1.62 c-2.86 0 -4.9 -2.4 -4.9 -5.14 c0 -3.16 2.36 -5.06 5.34 -5.06 c3.18 0 5.18 2.04 5.26 5.1 c0.02 0.26 0.02 0.56 0.02 0.92 c0 1.4 0.22 2.8 0.78 4.08 z M71.92 15 l0 5 l-3 0 l0 -4.98 c0 -3.32 2.44 -5.12 5.52 -5.12 c0.1 0 0.24 0 0.38 0.02 s0.3 0.06 0.44 0.08 l0 2.9 c-0.1 -0.02 -0.22 -0.04 -0.36 -0.06 s-0.26 -0.04 -0.36 -0.04 c-0.5 0 -0.9 0.06 -1.24 0.16 c-0.56 0.2 -1.06 0.58 -1.24 1.18 c-0.1 0.26 -0.14 0.56 -0.14 0.86 z M86.24000000000001 15 l0 5 l-3 0 l0 -5 c0 -1.38 -0.64 -2.32 -2.1 -2.32 c-1.44 0 -2.1 0.96 -2.1 2.32 l0 5 l-3 0 l0 -5 c0 -3.08 2.12 -5.1 5.1 -5.1 c3.1 0 5.1 2.12 5.1 5.1 z" fill="#FFFFFF"></path></g></svg>